<svg width="32" height="32" viewBox="0 0 32 32" fill="none" xmlns="http://www.w3.org/2000/svg">
<path d="M8.05 24.25C7.8 24.2 7.6 24.15 7.35 24.05C7.1 23.95 6.9 23.9 6.7 23.8C6.25 23.6 5.85 23.35 5.45 23.05C4.65 22.5 4 21.75 3.5 20.85C3 20 2.7 19 2.65 18.05C2.6 17.55 2.65 17.1 2.7 16.6C2.75 16.35 2.8 16.15 2.85 15.9C2.9 15.65 3 15.45 3.05 15.2L3.1 15.9C3.1 16.15 3.15 16.35 3.2 16.6C3.25 17.05 3.35 17.5 3.45 17.9C3.65 18.75 3.95 19.55 4.4 20.3C4.85 21.05 5.35 21.75 6 22.4C6.3 22.7 6.65 23 7 23.3C7.15 23.45 7.35 23.6 7.55 23.75L8.05 24.25ZM7.9 26.05C7.75 26.15 7.55 26.2 7.35 26.25C7.15 26.3 7 26.35 6.8 26.35C6.45 26.4 6.05 26.45 5.65 26.4C4.9 26.35 4.1 26.15 3.45 25.8C2.75 25.45 2.15 24.9 1.75 24.25C1.55 23.95 1.35 23.6 1.2 23.25C1.15 23.1 1.1 22.9001 1.05 22.7001C1.05 22.5501 1 22.4001 1 22.2001C1.15 22.3501 1.25 22.5 1.35 22.6C1.5 22.75 1.6 22.9 1.7 23C1.95 23.25 2.15 23.5001 2.4 23.7001C2.9 24.1501 3.4 24.55 4 24.85C4.55 25.15 5.2 25.4 5.8 25.6C6.1 25.7 6.45 25.75 6.8 25.85C6.95 25.9 7.15 25.9001 7.3 25.9501C7.55 26.0001 7.7 26 7.9 26.05M19.2 1.75005C19.45 1.80005 19.65 1.90005 19.9 2.00005C20.15 2.10005 20.35 2.20005 20.55 2.30005C21 2.55005 21.4 2.80005 21.8 3.10005C22.6 3.70005 23.25 4.50005 23.7 5.40005C24.15 6.30005 24.4 7.30005 24.4 8.25005C24.4 8.75005 24.35 9.20005 24.25 9.70005C24.2 9.95005 24.15 10.15 24.05 10.4C23.95 10.65 23.9 10.85 23.8 11.05L23.75 10.35C23.75 10.1 23.75 9.90005 23.7 9.65005L23.55 8.30005C23.4 7.45005 23.1 6.60005 22.7 5.80005C22.3 5.00005 21.8 4.30005 21.2 3.65005C20.9 3.30005 20.55 3.00005 20.25 2.65005C20.1 2.50005 19.9 2.35005 19.7 2.20005L19.2 1.75005M23.55 1.55005C23.75 1.60005 23.9 1.65005 24.05 1.75005C24.2 1.80005 24.4 1.90005 24.55 2.00005C24.85 2.20005 25.15 2.40005 25.45 2.65005C26 3.15005 26.45 3.75005 26.7 4.45005C27 5.15005 27.1 5.90005 27 6.65005C26.95 7.00005 26.85 7.35005 26.75 7.70005C26.7 7.85005 26.6 8.05005 26.55 8.20005C26.45 8.35005 26.4 8.50005 26.25 8.65005V7.65005C26.25 7.30005 26.2 7.00005 26.2 6.70005C26.1 6.05005 26 5.45005 25.75 4.90005C25.5 4.30005 25.2 3.80005 24.85 3.25005C24.65 3.00005 24.45 2.70005 24.25 2.45005C24.15 2.30005 24.05 2.20005 23.9 2.05005C23.8 1.80005 23.65 1.65005 23.55 1.55005" fill="#42ADE2"/>
<path d="M5 9.00002C4 9.45002 3.65 10.65 4.1 11.65L10.4 24.8L13.9 23.15L7.6 9.95002C7.15 8.95002 6 8.50002 5 9.00002M21.55 19.45L25.25 17.7L18.05 2.70002C17.55 1.70002 16.35 1.25002 15.3 1.75002C14.3 2.25002 13.85 3.45002 14.35 4.50002L21.55 19.45Z" fill="#ffb742"/>
<path d="M15.35 1.70011C15.25 1.75011 15.15 1.80011 15.05 1.90011C16 1.65011 17 2.10011 17.45 3.00011L24.65 18.0001L25.3 17.7001L18.1 2.70011C17.6 1.65011 16.4 1.20011 15.35 1.70011" fill="#EBA352"/>
<path d="M13.9 23.1L17.75 21.25L10.4 5.95004C9.89999 4.90004 8.6 4.40004 7.55 4.90004C6.5 5.40004 6.05 6.70004 6.55 7.75004L13.9 23.1Z" fill="#ffb742"/>
<path d="M7.55 4.95003C7.45 5.00003 7.35 5.05003 7.25 5.15003C8.2 4.90003 9.3 5.35003 9.75 6.30003L14.3 15.85L15.4 16.5L10.4 6.00003C9.9 4.90003 8.65 4.45003 7.55 4.95003" fill="#EBA352"/>
<path d="M17.15 20.0501L21 18.2001L13.65 2.90009C13.15 1.85009 11.85 1.35009 10.8 1.90009C9.75 2.40009 9.3 3.70009 9.8 4.75009L17.15 20.0501Z" fill="#ffb742"/>
<path d="M10.8 1.84994C10.7 1.89994 10.6 1.99994 10.5 2.04994C11.45 1.79994 12.55 2.24994 13 3.19994L18.15 13.9999L19.25 14.6499L13.65 2.89994C13.15 1.79994 11.85 1.34994 10.8 1.84994M5.00001 8.99994C4.90001 9.04994 4.80001 9.09994 4.70001 9.19994C5.60001 8.94994 6.55001 9.39994 6.95001 10.2999L10.7 18.1499L11.8 18.7999L7.60001 9.99994C7.15001 8.94994 6.00001 8.49994 5.00001 8.99994Z" fill="#EBA352"/>
<path d="M30.4 7.49996C29.05 6.44996 26.85 7.59996 25.75 11.2C25 13.7 24.9 14.45 23.3 15.2L22.4 13.35C22.4 13.35 8.20001 20.2 8.75001 21.3C8.75001 21.3 10.45 26.6 13.35 29.05C17.65 32.75 27.7 28.8 28.15 19.25C28.4 13.7 31.85 8.64996 30.4 7.49996Z" fill="#ffb742"/>
<path d="M30.4 7.4999C30.15 7.2999 29.85 7.1999 29.55 7.1499C29.6 7.1999 29.7 7.1999 29.75 7.2499C31.25 8.3999 29.7 11.0499 28.85 13.4499C28.15 15.3499 27.55 17.2999 27.65 19.1999C28.05 27.4999 19.7 31.4499 14.7 29.9499C19.6 31.9999 28.7 28.0999 28.3 19.4499C28.2 17.5499 28.75 15.6999 29.5 13.6999C30.3 11.2999 31.85 8.6499 30.4 7.4999" fill="#EBA352"/>
<path d="M23.75 15C20.65 15.35 16.1 19.8 19.3 24.65C16.95 19.75 20.8 16.45 23.25 15.3C23.5 15.1 23.75 15 23.75 15" fill="#EBA352"/>
</svg>
